<?xml version="1.0" standalone="no"?><!DOCTYPE svg PUBLIC "-//W3C//DTD SVG 1.1//EN" "http://www.w3.org/Graphics/SVG/1.1/DTD/svg11.dtd"><svg t="1559885572441" class="icon" style="" viewBox="0 0 1024 1024" version="1.1" xmlns="http://www.w3.org/2000/svg" p-id="1971" xmlns:xlink="http://www.w3.org/1999/xlink" width="200" height="200"><defs><style type="text/css"></style></defs><path d="M0 0v1024h1024V0H0z m976 976h-928v-928h924.8v928z" p-id="1972"></path><path d="M265.6 374.4h489.6c16 0 28.8-12.8 28.8-28.8s-12.8-25.6-25.6-25.6H265.6c-16 0-28.8 12.8-28.8 28.8s16 25.6 28.8 25.6zM265.6 540.8h489.6c16 0 28.8-12.8 28.8-28.8s-12.8-28.8-28.8-28.8H265.6c-16 0-28.8 12.8-28.8 28.8 3.2 16 16 28.8 28.8 28.8zM265.6 704h489.6c16 0 28.8-12.8 28.8-28.8s-12.8-28.8-28.8-28.8H265.6c-16 0-28.8 12.8-28.8 28.8s16 28.8 28.8 28.8z" p-id="1973"></path></svg>