<?xml  version="1.0" standalone="no"?><!DOCTYPE svg PUBLIC "-//W3C//DTD SVG 1.1//EN" "http://www.w3.org/Graphics/SVG/1.1/DTD/svg11.dtd"><svg t="1559367781790" class="icon" style="" viewBox="0 0 1024 1024" version="1.1" xmlns="http://www.w3.org/2000/svg" p-id="1559" xmlns:xlink="http://www.w3.org/1999/xlink" width="200" height="200"><defs><style type="text/css"></style></defs><path d="M901.12 1024H20.48c-11.264 0-20.48-9.216-20.48-20.48V122.88C0 55.296 55.296 0 122.88 0h880.64c11.264 0 20.48 9.216 20.48 20.48v880.64c0 67.584-55.296 122.88-122.88 122.88z" fill="#F0FAFF" p-id="1560"></path><path d="M780.288 645.12L525.312 793.6c-7.168 4.096-15.36 4.096-21.504 0L243.712 644.096c-14.336-8.192-14.336-29.696 0-37.888l254.976-139.264c6.144-3.072 14.336-4.096 20.48 0l261.12 140.288c14.336 8.192 14.336 28.672 0 37.888z" fill="#0562C7" p-id="1561"></path><path d="M780.288 526.336L525.312 674.816c-7.168 4.096-15.36 4.096-21.504 0L243.712 526.336c-14.336-8.192-14.336-29.696 0-37.888L498.688 348.16c6.144-3.072 14.336-4.096 20.48 0l261.12 140.288c14.336 8.192 14.336 29.696 0 37.888z" fill="#1584ED" p-id="1562"></path><path d="M780.288 407.552L525.312 557.056c-7.168 4.096-15.36 4.096-21.504 0L243.712 407.552c-14.336-8.192-14.336-29.696 0-37.888l254.976-139.264c6.144-3.072 14.336-4.096 20.48 0l261.12 140.288c14.336 7.168 14.336 28.672 0 36.864z" fill="#72C2FF" p-id="1563"></path></svg>